<svg width="143" height="105" viewBox="0 0 143 105" fill="none" xmlns="http://www.w3.org/2000/svg">
<path d="M4.08016 30.8602C4.08016 32.0247 3.20584 32.8981 2.04008 32.8981C0.874321 32.8981 0 32.0247 0 30.8602C0 29.6956 0.874321 28.8223 2.04008 28.8223C3.20584 28.8223 4.08016 29.7927 4.08016 30.8602Z" fill="white"/>
<path d="M21.1602 30.8602C21.1602 32.0247 20.2859 32.8981 19.1202 32.8981C17.9544 32.8981 17.0801 32.0247 17.0801 30.8602C17.0801 29.6956 17.9544 28.8223 19.1202 28.8223C20.1888 28.8223 21.1602 29.7927 21.1602 30.8602Z" fill="white"/>
<path d="M38.2403 30.8602C38.2403 32.0247 37.366 32.8981 36.2002 32.8981C35.0345 32.8981 34.1602 32.0247 34.1602 30.8602C34.1602 29.6956 35.0345 28.8223 36.2002 28.8223C37.366 28.8223 38.2403 29.7927 38.2403 30.8602Z" fill="white"/>
<path d="M55.3204 30.8602C55.3204 32.0247 54.4461 32.8981 53.2803 32.8981C52.1146 32.8981 51.2402 32.0247 51.2402 30.8602C51.2402 29.6956 52.1146 28.8223 53.2803 28.8223C54.4461 28.8223 55.3204 29.7927 55.3204 30.8602Z" fill="white"/>
<path d="M72.4005 30.8602C72.4005 32.0247 71.5261 32.8981 70.3604 32.8981C69.1946 32.8981 68.3203 32.0247 68.3203 30.8602C68.3203 29.6956 69.1946 28.8223 70.3604 28.8223C71.429 28.8223 72.4005 29.7927 72.4005 30.8602Z" fill="white"/>
<path d="M89.4805 30.8602C89.4805 32.0247 88.6062 32.8981 87.4405 32.8981C86.2747 32.8981 85.4004 32.0247 85.4004 30.8602C85.4004 29.6956 86.2747 28.8223 87.4405 28.8223C88.6062 28.8223 89.4805 29.7927 89.4805 30.8602Z" fill="white"/>
<path d="M106.561 30.8602C106.561 32.0247 105.686 32.8981 104.521 32.8981C103.355 32.8981 102.48 32.0247 102.48 30.8602C102.48 29.6956 103.355 28.8223 104.521 28.8223C105.686 28.8223 106.561 29.7927 106.561 30.8602Z" fill="white"/>
<path d="M123.641 30.8602C123.641 32.0247 122.766 32.8981 121.601 32.8981C120.435 32.8981 119.561 32.0247 119.561 30.8602C119.561 29.6956 120.435 28.8223 121.601 28.8223C122.766 28.8223 123.641 29.7927 123.641 30.8602Z" fill="white"/>
<path d="M140.721 30.8602C140.721 32.0247 139.846 32.8981 138.681 32.8981C137.515 32.8981 136.641 32.0247 136.641 30.8602C136.641 29.6956 137.515 28.8223 138.681 28.8223C139.749 28.8223 140.721 29.7927 140.721 30.8602Z" fill="white"/>
<path d="M4.08016 45.3191C4.08016 46.4837 3.20584 47.357 2.04008 47.357C0.874321 47.357 0 46.4837 0 45.3191C0 44.1546 0.874321 43.2812 2.04008 43.2812C3.20584 43.2812 4.08016 44.1546 4.08016 45.3191Z" fill="white"/>
<path d="M21.1602 45.3191C21.1602 46.4837 20.2859 47.357 19.1202 47.357C17.9544 47.357 17.0801 46.4837 17.0801 45.3191C17.0801 44.1546 17.9544 43.2812 19.1202 43.2812C20.1888 43.2812 21.1602 44.1546 21.1602 45.3191Z" fill="white"/>
<path d="M38.2403 45.3191C38.2403 46.4837 37.366 47.357 36.2002 47.357C35.0345 47.357 34.1602 46.4837 34.1602 45.3191C34.1602 44.1546 35.0345 43.2812 36.2002 43.2812C37.366 43.2812 38.2403 44.1546 38.2403 45.3191Z" fill="white"/>
<path d="M55.3204 45.3191C55.3204 46.4837 54.4461 47.357 53.2803 47.357C52.1146 47.357 51.2402 46.4837 51.2402 45.3191C51.2402 44.1546 52.1146 43.2812 53.2803 43.2812C54.4461 43.2812 55.3204 44.1546 55.3204 45.3191Z" fill="white"/>
<path d="M72.4005 45.3191C72.4005 46.4837 71.5261 47.357 70.3604 47.357C69.1946 47.357 68.3203 46.4837 68.3203 45.3191C68.3203 44.1546 69.1946 43.2812 70.3604 43.2812C71.429 43.2812 72.4005 44.1546 72.4005 45.3191Z" fill="white"/>
<path d="M89.4805 45.3191C89.4805 46.4837 88.6062 47.357 87.4405 47.357C86.2747 47.357 85.4004 46.4837 85.4004 45.3191C85.4004 44.1546 86.2747 43.2812 87.4405 43.2812C88.6062 43.2812 89.4805 44.1546 89.4805 45.3191Z" fill="white"/>
<path d="M106.561 45.3191C106.561 46.4837 105.686 47.357 104.521 47.357C103.355 47.357 102.48 46.4837 102.48 45.3191C102.48 44.1546 103.355 43.2812 104.521 43.2812C105.686 43.2812 106.561 44.1546 106.561 45.3191Z" fill="white"/>
<path d="M123.641 45.3191C123.641 46.4837 122.766 47.357 121.601 47.357C120.435 47.357 119.561 46.4837 119.561 45.3191C119.561 44.1546 120.435 43.2812 121.601 43.2812C122.766 43.2812 123.641 44.1546 123.641 45.3191Z" fill="white"/>
<path d="M140.721 45.3191C140.721 46.4837 139.846 47.357 138.681 47.357C137.515 47.357 136.641 46.4837 136.641 45.3191C136.641 44.1546 137.515 43.2812 138.681 43.2812C139.749 43.2812 140.721 44.1546 140.721 45.3191Z" fill="white"/>
<path d="M4.08016 2.03789C4.08016 3.2024 3.20584 4.07579 2.04008 4.07579C0.874321 4.07579 0 3.2024 0 2.03789C0 0.873382 0.874321 0 2.04008 0C3.20584 0 4.08016 0.873382 4.08016 2.03789Z" fill="white"/>
<path d="M21.1602 2.03789C21.1602 3.2024 20.2859 4.07579 19.1202 4.07579C17.9544 4.07579 17.0801 3.2024 17.0801 2.03789C17.0801 0.873382 17.9544 0 19.1202 0C20.1888 0 21.1602 0.873382 21.1602 2.03789Z" fill="white"/>
<path d="M38.2403 2.03789C38.2403 3.2024 37.366 4.07579 36.2002 4.07579C35.0345 4.07579 34.1602 3.2024 34.1602 2.03789C34.1602 0.873382 35.1316 0 36.2002 0C37.366 0 38.2403 0.873382 38.2403 2.03789Z" fill="white"/>
<path d="M55.3204 2.03789C55.3204 3.2024 54.4461 4.07579 53.2803 4.07579C52.1146 4.07579 51.2402 3.2024 51.2402 2.03789C51.2402 0.873382 52.2117 0 53.2803 0C54.3489 0 55.3204 0.873382 55.3204 2.03789Z" fill="white"/>
<path d="M72.4005 2.03789C72.4005 3.2024 71.5261 4.07579 70.3604 4.07579C69.1946 4.07579 68.3203 3.2024 68.3203 2.03789C68.3203 0.873382 69.1946 0 70.3604 0C71.429 0 72.4005 0.873382 72.4005 2.03789Z" fill="white"/>
<path d="M89.4805 2.03789C89.4805 3.2024 88.6062 4.07579 87.4405 4.07579C86.2747 4.07579 85.4004 3.2024 85.4004 2.03789C85.4004 0.873382 86.2747 0 87.4405 0C88.6062 0 89.4805 0.873382 89.4805 2.03789Z" fill="white"/>
<path d="M106.561 2.03789C106.561 3.2024 105.686 4.07579 104.521 4.07579C103.355 4.07579 102.48 3.2024 102.48 2.03789C102.48 0.873382 103.355 0 104.521 0C105.686 0 106.561 0.873382 106.561 2.03789Z" fill="white"/>
<path d="M123.641 2.03789C123.641 3.2024 122.766 4.07579 121.601 4.07579C120.435 4.07579 119.561 3.2024 119.561 2.03789C119.561 0.873382 120.435 0 121.601 0C122.766 0 123.641 0.873382 123.641 2.03789Z" fill="white"/>
<path d="M140.721 2.03789C140.721 3.2024 139.846 4.07579 138.681 4.07579C137.515 4.07579 136.641 3.2024 136.641 2.03789C136.641 0.873382 137.515 0 138.681 0C139.749 0 140.721 0.873382 140.721 2.03789Z" fill="white"/>
<path d="M4.08016 16.4969C4.08016 17.6614 3.20584 18.5348 2.04008 18.5348C0.874321 18.5348 0 17.5643 0 16.4969C0 15.3324 0.874321 14.459 2.04008 14.459C3.20584 14.459 4.08016 15.3324 4.08016 16.4969Z" fill="white"/>
<path d="M21.1602 16.4969C21.1602 17.6614 20.2859 18.5348 19.1202 18.5348C17.9544 18.5348 17.0801 17.6614 17.0801 16.4969C17.0801 15.3324 17.9544 14.459 19.1202 14.459C20.1888 14.459 21.1602 15.3324 21.1602 16.4969Z" fill="white"/>
<path d="M38.2403 16.4969C38.2403 17.6614 37.366 18.5348 36.2002 18.5348C35.0345 18.5348 34.1602 17.6614 34.1602 16.4969C34.1602 15.3324 35.0345 14.459 36.2002 14.459C37.366 14.459 38.2403 15.3324 38.2403 16.4969Z" fill="white"/>
<path d="M55.3204 16.4969C55.3204 17.6614 54.4461 18.5348 53.2803 18.5348C52.1146 18.5348 51.2402 17.6614 51.2402 16.4969C51.2402 15.3324 52.1146 14.459 53.2803 14.459C54.4461 14.459 55.3204 15.3324 55.3204 16.4969Z" fill="white"/>
<path d="M72.4005 16.4969C72.4005 17.6614 71.5261 18.5348 70.3604 18.5348C69.1946 18.5348 68.3203 17.6614 68.3203 16.4969C68.3203 15.3324 69.1946 14.459 70.3604 14.459C71.429 14.459 72.4005 15.3324 72.4005 16.4969Z" fill="white"/>
<path d="M89.4805 16.4969C89.4805 17.6614 88.6062 18.5348 87.4405 18.5348C86.2747 18.5348 85.4004 17.6614 85.4004 16.4969C85.4004 15.3324 86.2747 14.459 87.4405 14.459C88.6062 14.459 89.4805 15.3324 89.4805 16.4969Z" fill="white"/>
<path d="M106.561 16.4969C106.561 17.6614 105.686 18.5348 104.521 18.5348C103.355 18.5348 102.48 17.6614 102.48 16.4969C102.48 15.3324 103.355 14.459 104.521 14.459C105.686 14.459 106.561 15.3324 106.561 16.4969Z" fill="white"/>
<path d="M123.641 16.4969C123.641 17.6614 122.766 18.5348 121.601 18.5348C120.435 18.5348 119.561 17.6614 119.561 16.4969C119.561 15.3324 120.435 14.459 121.601 14.459C122.766 14.459 123.641 15.3324 123.641 16.4969Z" fill="white"/>
<path d="M140.721 16.4969C140.721 17.6614 139.846 18.5348 138.681 18.5348C137.515 18.5348 136.641 17.6614 136.641 16.4969C136.641 15.3324 137.515 14.459 138.681 14.459C139.749 14.459 140.721 15.3324 140.721 16.4969Z" fill="white"/>
<path d="M4.08016 59.6805C4.08016 60.845 3.20584 61.7184 2.04008 61.7184C0.874321 61.7184 0 60.845 0 59.6805C0 58.516 0.874321 57.6426 2.04008 57.6426C3.20584 57.6426 4.08016 58.613 4.08016 59.6805Z" fill="white"/>
<path d="M21.1602 59.6805C21.1602 60.845 20.2859 61.7184 19.1202 61.7184C17.9544 61.7184 17.0801 60.845 17.0801 59.6805C17.0801 58.516 17.9544 57.6426 19.1202 57.6426C20.1888 57.6426 21.1602 58.613 21.1602 59.6805Z" fill="white"/>
<path d="M38.2403 59.6805C38.2403 60.845 37.366 61.7184 36.2002 61.7184C35.0345 61.7184 34.1602 60.845 34.1602 59.6805C34.1602 58.516 35.0345 57.6426 36.2002 57.6426C37.366 57.6426 38.2403 58.613 38.2403 59.6805Z" fill="white"/>
<path d="M55.3204 59.6805C55.3204 60.845 54.4461 61.7184 53.2803 61.7184C52.1146 61.7184 51.2402 60.845 51.2402 59.6805C51.2402 58.516 52.1146 57.6426 53.2803 57.6426C54.4461 57.6426 55.3204 58.613 55.3204 59.6805Z" fill="white"/>
<path d="M72.4005 59.6805C72.4005 60.845 71.5261 61.7184 70.3604 61.7184C69.1946 61.7184 68.3203 60.845 68.3203 59.6805C68.3203 58.516 69.1946 57.6426 70.3604 57.6426C71.429 57.6426 72.4005 58.613 72.4005 59.6805Z" fill="white"/>
<path d="M89.4805 59.6805C89.4805 60.845 88.6062 61.7184 87.4405 61.7184C86.2747 61.7184 85.4004 60.845 85.4004 59.6805C85.4004 58.516 86.2747 57.6426 87.4405 57.6426C88.6062 57.6426 89.4805 58.613 89.4805 59.6805Z" fill="white"/>
<path d="M106.561 59.6805C106.561 60.845 105.686 61.7184 104.521 61.7184C103.355 61.7184 102.48 60.845 102.48 59.6805C102.48 58.516 103.355 57.6426 104.521 57.6426C105.686 57.6426 106.561 58.613 106.561 59.6805Z" fill="white"/>
<path d="M123.641 59.6805C123.641 60.845 122.766 61.7184 121.601 61.7184C120.435 61.7184 119.561 60.845 119.561 59.6805C119.561 58.516 120.435 57.6426 121.601 57.6426C122.766 57.6426 123.641 58.613 123.641 59.6805Z" fill="white"/>
<path d="M140.721 59.6805C140.721 60.845 139.846 61.7184 138.681 61.7184C137.515 61.7184 136.641 60.845 136.641 59.6805C136.641 58.516 137.515 57.6426 138.681 57.6426C139.749 57.6426 140.721 58.613 140.721 59.6805Z" fill="white"/>
<path d="M4.08016 74.1395C4.08016 75.304 3.20584 76.1773 2.04008 76.1773C0.874321 76.1773 0 75.304 0 74.1395C0 72.9749 0.874321 72.1016 2.04008 72.1016C3.20584 72.1016 4.08016 72.9749 4.08016 74.1395Z" fill="white"/>
<path d="M21.1602 74.1395C21.1602 75.304 20.2859 76.1773 19.1202 76.1773C17.9544 76.1773 17.0801 75.304 17.0801 74.1395C17.0801 72.9749 17.9544 72.1016 19.1202 72.1016C20.1888 72.1016 21.1602 72.9749 21.1602 74.1395Z" fill="white"/>
<path d="M38.2403 74.1395C38.2403 75.304 37.366 76.1773 36.2002 76.1773C35.0345 76.1773 34.1602 75.304 34.1602 74.1395C34.1602 72.9749 35.0345 72.1016 36.2002 72.1016C37.366 72.1016 38.2403 72.9749 38.2403 74.1395Z" fill="white"/>
<path d="M53.2803 76.1773C54.407 76.1773 55.3204 75.265 55.3204 74.1395C55.3204 73.014 54.407 72.1016 53.2803 72.1016C52.1536 72.1016 51.2402 73.014 51.2402 74.1395C51.2402 75.265 52.1536 76.1773 53.2803 76.1773Z" fill="white"/>
<path d="M72.4005 74.1395C72.4005 75.304 71.5261 76.1773 70.3604 76.1773C69.1946 76.1773 68.3203 75.304 68.3203 74.1395C68.3203 72.9749 69.1946 72.1016 70.3604 72.1016C71.429 72.1016 72.4005 72.9749 72.4005 74.1395Z" fill="white"/>
<path d="M89.4805 74.1395C89.4805 75.304 88.6062 76.1773 87.4405 76.1773C86.2747 76.1773 85.4004 75.304 85.4004 74.1395C85.4004 72.9749 86.2747 72.1016 87.4405 72.1016C88.6062 72.1016 89.4805 72.9749 89.4805 74.1395Z" fill="white"/>
<path d="M106.561 74.1395C106.561 75.304 105.686 76.1773 104.521 76.1773C103.355 76.1773 102.48 75.304 102.48 74.1395C102.48 72.9749 103.355 72.1016 104.521 72.1016C105.686 72.1016 106.561 72.9749 106.561 74.1395Z" fill="white"/>
<path d="M121.601 76.1773C122.727 76.1773 123.641 75.265 123.641 74.1395C123.641 73.014 122.727 72.1016 121.601 72.1016C120.474 72.1016 119.561 73.014 119.561 74.1395C119.561 75.265 120.474 76.1773 121.601 76.1773Z" fill="white"/>
<path d="M140.721 74.1395C140.721 75.304 139.846 76.1773 138.681 76.1773C137.515 76.1773 136.641 75.304 136.641 74.1395C136.641 72.9749 137.515 72.1016 138.681 72.1016C139.749 72.1016 140.721 72.9749 140.721 74.1395Z" fill="white"/>
<path d="M4.08016 88.6004C4.08016 89.7649 3.20584 90.6383 2.04008 90.6383C0.874321 90.6383 0 89.7649 0 88.6004C0 87.4359 0.874321 86.5625 2.04008 86.5625C3.20584 86.5625 4.08016 87.4359 4.08016 88.6004Z" fill="white"/>
<path d="M21.1602 88.6004C21.1602 89.7649 20.2859 90.6383 19.1202 90.6383C17.9544 90.6383 17.0801 89.7649 17.0801 88.6004C17.0801 87.4359 17.9544 86.5625 19.1202 86.5625C20.1888 86.5625 21.1602 87.4359 21.1602 88.6004Z" fill="white"/>
<path d="M38.2403 88.6004C38.2403 89.7649 37.366 90.6383 36.2002 90.6383C35.0345 90.6383 34.1602 89.7649 34.1602 88.6004C34.1602 87.4359 35.0345 86.5625 36.2002 86.5625C37.366 86.5625 38.2403 87.4359 38.2403 88.6004Z" fill="white"/>
<path d="M55.3204 88.6004C55.3204 89.7649 54.4461 90.6383 53.2803 90.6383C52.1146 90.6383 51.2402 89.7649 51.2402 88.6004C51.2402 87.4359 52.1146 86.5625 53.2803 86.5625C54.4461 86.5625 55.3204 87.4359 55.3204 88.6004Z" fill="white"/>
<path d="M72.4005 88.6004C72.4005 89.7649 71.5261 90.6383 70.3604 90.6383C69.1946 90.6383 68.3203 89.7649 68.3203 88.6004C68.3203 87.4359 69.1946 86.5625 70.3604 86.5625C71.429 86.5625 72.4005 87.4359 72.4005 88.6004Z" fill="white"/>
<path d="M89.4805 88.6004C89.4805 89.7649 88.6062 90.6383 87.4405 90.6383C86.2747 90.6383 85.4004 89.7649 85.4004 88.6004C85.4004 87.4359 86.2747 86.5625 87.4405 86.5625C88.6062 86.5625 89.4805 87.4359 89.4805 88.6004Z" fill="white"/>
<path d="M106.561 88.6004C106.561 89.7649 105.686 90.6383 104.521 90.6383C103.355 90.6383 102.48 89.7649 102.48 88.6004C102.48 87.4359 103.355 86.5625 104.521 86.5625C105.686 86.5625 106.561 87.4359 106.561 88.6004Z" fill="white"/>
<path d="M123.641 88.6004C123.641 89.7649 122.766 90.6383 121.601 90.6383C120.435 90.6383 119.561 89.7649 119.561 88.6004C119.561 87.4359 120.435 86.5625 121.601 86.5625C122.766 86.5625 123.641 87.4359 123.641 88.6004Z" fill="white"/>
<path d="M140.721 88.6004C140.721 89.7649 139.846 90.6383 138.681 90.6383C137.515 90.6383 136.641 89.7649 136.641 88.6004C136.641 87.4359 137.515 86.5625 138.681 86.5625C139.749 86.5625 140.721 87.4359 140.721 88.6004Z" fill="white"/>
<path d="M4.08016 102.962C4.08016 104.126 3.20584 105 2.04008 105C0.874321 105 0 104.126 0 102.962C0 101.797 0.874321 100.924 2.04008 100.924C3.20584 100.924 4.08016 101.894 4.08016 102.962Z" fill="white"/>
<path d="M21.1602 102.962C21.1602 104.126 20.2859 105 19.1202 105C17.9544 105 17.0801 104.126 17.0801 102.962C17.0801 101.797 17.9544 100.924 19.1202 100.924C20.1888 100.924 21.1602 101.894 21.1602 102.962Z" fill="white"/>
<path d="M38.2403 102.962C38.2403 104.126 37.366 105 36.2002 105C35.0345 105 34.1602 104.126 34.1602 102.962C34.1602 101.797 35.0345 100.924 36.2002 100.924C37.366 100.924 38.2403 101.894 38.2403 102.962Z" fill="white"/>
<path d="M55.3204 102.962C55.3204 104.126 54.4461 105 53.2803 105C52.1146 105 51.2402 104.126 51.2402 102.962C51.2402 101.797 52.1146 100.924 53.2803 100.924C54.4461 100.924 55.3204 101.894 55.3204 102.962Z" fill="white"/>
<path d="M72.4005 102.962C72.4005 104.126 71.5261 105 70.3604 105C69.1946 105 68.3203 104.126 68.3203 102.962C68.3203 101.797 69.1946 100.924 70.3604 100.924C71.429 100.924 72.4005 101.894 72.4005 102.962Z" fill="white"/>
<path d="M89.4805 102.962C89.4805 104.126 88.6062 105 87.4405 105C86.2747 105 85.4004 104.126 85.4004 102.962C85.4004 101.797 86.2747 100.924 87.4405 100.924C88.6062 100.924 89.4805 101.894 89.4805 102.962Z" fill="white"/>
<path d="M106.561 102.962C106.561 104.126 105.686 105 104.521 105C103.355 105 102.48 104.126 102.48 102.962C102.48 101.797 103.355 100.924 104.521 100.924C105.686 100.924 106.561 101.894 106.561 102.962Z" fill="white"/>
<path d="M123.641 102.962C123.641 104.126 122.766 105 121.601 105C120.435 105 119.561 104.126 119.561 102.962C119.561 101.797 120.435 100.924 121.601 100.924C122.766 100.924 123.641 101.894 123.641 102.962Z" fill="white"/>
<path d="M140.721 102.962C140.721 104.126 139.846 105 138.681 105C137.515 105 136.641 104.126 136.641 102.962C136.641 101.797 137.515 100.924 138.681 100.924C139.749 100.924 140.721 101.894 140.721 102.962Z" fill="white"/>
</svg>
